PathFileType	4	(X/Y/Z)	/Users/itak/Documents/Research/Walk-IL/dataset/trc/00152_00007.trc
DataRate	CameraRate	NumFrames	NumMarkers	Units	OrigDataRate	OrigDataStartFrame	OrigNumFrames
100.000000	100.000000	4	53	mm	100.000000	268	537
Frame#	Time	RPSI			LPSI			L3			STRN			T10			C7			CLAV			RBAK			LBAK			LSHO			LUPA			LAEL			LAOL			LWTS			LWPS			LFRA			LIFD			LHPS			LHTS			RSHO			RUPA			RAEL			RAOL			RWTS			RWPS			RFRA			RIFD			RHTS			RHPS			RBHD			LFHD			RFHD			LBHD			LHIP			RHIP			RASI			LASI			LKNE			LTHI			LANK			LTIP			LTOE			LMT1			LMT5			LHEE			RKNE			RTHI			RANK			RTIP			RTOE			RMT1			RMT5			RHEE			
		X1	Y1	Z1	X2	Y2	Z2	X3	Y3	Z3	X4	Y4	Z4	X5	Y5	Z5	X6	Y6	Z6	X7	Y7	Z7	X8	Y8	Z8	X9	Y9	Z9	X10	Y10	Z10	X11	Y11	Z11	X12	Y12	Z12	X13	Y13	Z13	X14	Y14	Z14	X15	Y15	Z15	X16	Y16	Z16	X17	Y17	Z17	X18	Y18	Z18	X19	Y19	Z19	X20	Y20	Z20	X21	Y21	Z21	X22	Y22	Z22	X23	Y23	Z23	X24	Y24	Z24	X25	Y25	Z25	X26	Y26	Z26	X27	Y27	Z27	X28	Y28	Z28	X29	Y29	Z29	X30	Y30	Z30	X31	Y31	Z31	X32	Y32	Z32	X33	Y33	Z33	X34	Y34	Z34	X35	Y35	Z35	X36	Y36	Z36	X37	Y37	Z37	X38	Y38	Z38	X39	Y39	Z39	X40	Y40	Z40	X41	Y41	Z41	X42	Y42	Z42	X43	Y43	Z43	X44	Y44	Z44	X45	Y45	Z45	X46	Y46	Z46	X47	Y47	Z47	X48	Y48	Z48	X49	Y49	Z49	X50	Y50	Z50	X51	Y51	Z51	X52	Y52	Z52	X53	Y53	Z53	

269	2.68	-380.3252258300781	1107.00927734375	-524.2242431640625	-308.0269470214844	1123.312377929688	-638.5538940429688	-350.5236511230469	1154.684326171875	-585.6851196289062	-161.4222869873047	1355.489501953125	-468.2111511230469	-381.5653991699219	1307.236694335938	-597.1812744140625	-341.7199401855469	1599.291381835938	-588.4974975585938	-188.5941772460938	1490.637451171875	-489.9667053222656	-433.7860107421875	1415.20458984375	-540.03173828125	-294.8083801269531	1579.891479492188	-679.0159301757812	-186.2992858886719	1565.379760742188	-696.0236206054688	-172.0552978515625	1436.081420898438	-772.6197509765625	-158.0609436035156	1218.08447265625	-799.2648315429688	-244.7135467529297	1207.745727539062	-779.5827026367188	-105.1786422729492	950.7207641601562	-738.6151123046875	-167.5135955810547	933.282958984375	-801.04248046875	-148.142578125	1101.16650390625	-805.0791015625	-119.2813186645508	754.9490356445312	-730.36376953125	-146.9032745361328	855.8687744140625	-795.1406860351562	-93.67166137695312	861.5952758789062	-749.584228515625	-381.9764709472656	1580.136474609375	-402.1521301269531	-429.856201171875	1507.44921875	-355.3523559570312	-451.0465087890625	1213.295166015625	-340.7259216308594	-404.2224731445312	1210.175659179688	-425.2881469726562	-319.2221374511719	974.0875244140625	-270.0321350097656	-398.3482666015625	956.2158203125	-280.4403991699219	-438.4093933105469	1140.92138671875	-312.4003601074219	-285.6856384277344	780.1710205078125	-264.83251953125	-295.7539367675781	867.0626831054688	-247.0701599121094	-366.5931396484375	857.3919067382812	-255.389892578125	-344.6148376464844	1768.277465820312	-502.6303405761719	-135.4548034667969	1830.98291015625	-496.845458984375	-216.3660125732422	1825.344604492188	-395.3672790527344	-267.4317016601562	1778.474243164062	-612.7567138671875	-170.9816436767578	1046.748168945312	-689.2030029296875	-321.9618835449219	1007.721862792969	-360.8045654296875	-232.9714813232422	1089.892578125	-364.0074462890625	-102.5507736206055	1106.80029296875	-594.5709228515625	-78.72458648681641	551.655029296875	-642.7108764648438	-111.2837219238281	693.4700317382812	-682.0757446289062	-133.9633331298828	28.69453811645508	-691.2608032226562	-129.3571929931641	294.1977844238281	-713.861083984375	22.64785003662109	46.20954132080078	-517.9181518554688	-61.70304107666016	48.69864273071289	-532.3311157226562	-16.42046546936035	31.96277046203613	-642.7211303710938	-225.8427734375	33.85578536987305	-678.794921875	-194.1349945068359	527.622802734375	-357.595458984375	-254.7645416259766	802.595947265625	-348.9457702636719	-543.1557006835938	171.3316497802734	-542.59765625	-281.2040100097656	422.5250854492188	-390.4973754882812	-363.1597595214844	51.0744514465332	-482.6874084472656	-383.7523193359375	65.92867279052734	-549.705810546875	-471.9242248535156	88.140380859375	-468.1445617675781	-550.2572021484375	208.7923583984375	-606.9954223632812	
270	2.69	-373.1962280273438	1107.783569335938	-523.4935302734375	-299.971923828125	1123.955322265625	-637.2059326171875	-342.9504089355469	1155.424072265625	-585.052001953125	-154.4860076904297	1356.237670898438	-465.2195129394531	-373.1782836914062	1308.417114257812	-596.9209594726562	-332.8163452148438	1600.339965820312	-587.1195678710938	-181.2784118652344	1491.469848632812	-486.9053955078125	-425.7962646484375	1416.329345703125	-540.2705078125	-284.9001770019531	1581.12890625	-677.1173095703125	-176.145263671875	1566.666870117188	-692.6810302734375	-160.6468963623047	1437.56787109375	-769.30615234375	-145.4545440673828	1219.656616210938	-795.9600219726562	-232.5433807373047	1209.121337890625	-777.8544921875	-93.64913940429688	952.010498046875	-735.064697265625	-154.7178649902344	934.8467407226562	-798.7523803710938	-135.3022003173828	1102.74462890625	-801.8558349609375	-107.9037628173828	756.2285766601562	-728.0093383789062	-134.1926574707031	857.424560546875	-792.8573608398438	-81.86314392089844	862.9953002929688	-746.1983642578125	-375.6015930175781	1580.876831054688	-401.4321899414062	-424.2898864746094	1508.262573242188	-355.4419250488281	-446.8426513671875	1214.1533203125	-342.2236328125	-398.6353454589844	1211.164428710938	-426.0770263671875	-316.4517822265625	974.5432739257812	-270.0491943359375	-395.457275390625	956.7423095703125	-281.8737182617188	-434.8176879882812	1141.652099609375	-313.9789123535156	-283.1232299804688	780.625	-264.7652282714844	-293.5303344726562	867.3731079101562	-246.9286956787109	-364.2741394042969	857.8612060546875	-256.494140625	-336.5596008300781	1769.200561523438	-500.9695739746094	-127.4317779541016	1831.492065429688	-492.2260437011719	-209.7377014160156	1825.849487304688	-391.8636779785156	-257.8643798828125	1779.401611328125	-610.0340576171875	-162.5720367431641	1047.128051757812	-686.6219482421875	-316.0238342285156	1008.912719726562	-359.3290100097656	-227.0971069335938	1090.933471679688	-362.218505859375	-94.56366729736328	1107.43212890625	-591.5816040039062	-75.87547302246094	551.1709594726562	-642.1969604492188	-106.6354522705078	693.418212890625	-680.72119140625	-133.9925384521484	28.76849937438965	-691.1895751953125	-128.2275543212891	294.2357177734375	-713.7667236328125	22.78420257568359	46.04343032836914	-517.883544921875	-61.61429595947266	48.63731002807617	-532.2932739257812	-16.41107749938965	31.96949577331543	-642.75732421875	-225.914794921875	34.00083160400391	-678.6966552734375	-182.5029754638672	530.6107177734375	-351.9718933105469	-246.9439086914062	804.822998046875	-345.4991149902344	-522.0889892578125	167.6121368408203	-541.067138671875	-267.6228637695312	424.1743774414062	-386.1112976074219	-340.0381469726562	52.25671768188477	-474.8465881347656	-359.7969970703125	65.88094329833984	-542.3093872070312	-450.1715393066406	88.26605224609375	-463.059326171875	-528.9297485351562	203.3772735595703	-606.4640502929688	
271	2.7	-366.1845703125	1108.464233398438	-522.7052001953125	-292.1054077148438	1124.525634765625	-635.7924194335938	-335.4960327148438	1156.108520507812	-584.3404541015625	-147.6311492919922	1356.882690429688	-462.1894226074219	-364.8258972167969	1309.473266601562	-596.5414428710938	-324.0157165527344	1601.279052734375	-585.6607666015625	-174.0400695800781	1492.212036132812	-483.8083801269531	-417.8895874023438	1417.35546875	-540.408935546875	-275.1507263183594	1582.247924804688	-675.1339111328125	-166.1819458007812	1567.857299804688	-689.288330078125	-149.3974304199219	1438.9677734375	-765.9159545898438	-132.9115447998047	1221.146728515625	-792.5181274414062	-220.3442687988281	1210.393188476562	-775.9674072265625	-82.04088592529297	953.2455444335938	-731.3347778320312	-141.8198394775391	936.3263549804688	-796.224609375	-122.4572296142578	1104.237182617188	-798.4694213867188	-96.38199615478516	757.4578247070312	-725.3568115234375	-121.3600006103516	858.896240234375	-790.3043212890625	-69.94720458984375	864.3242797851562	-742.5797729492188	-369.2756042480469	1581.52392578125	-400.6566162109375	-418.7085571289062	1508.998779296875	-355.4665832519531	-442.6758117675781	1214.949340820312	-343.6295776367188	-393.1043395996094	1212.078002929688	-426.7945861816406	-313.6819763183594	974.9472045898438	-270.0700988769531	-392.5275573730469	957.2003173828125	-283.24072265625	-431.2345275878906	1142.322021484375	-315.4893188476562	-280.5188903808594	781.0161743164062	-264.7600402832031	-291.2556457519531	867.6355590820312	-246.7864990234375	-361.8725280761719	858.2687377929688	-257.5748596191406	-328.6260375976562	1770.028564453125	-499.2059020996094	-119.5599899291992	1831.893310546875	-487.5057678222656	-203.2436218261719	1826.182250976562	-388.2867126464844	-248.4424743652344	1780.28759765625	-607.1934814453125	-154.2675933837891	1047.4052734375	-683.92724609375	-310.2682800292969	1010.025939941406	-357.7923583984375	-221.3807067871094	1091.89013671875	-360.3370971679688	-86.68716430664062	1107.92138671875	-588.4681396484375	-73.07401275634766	550.6687622070312	-641.585693359375	-102.0641479492188	693.337158203125	-679.2525634765625	-134.0182952880859	28.85826873779297	-691.104248046875	-127.0685119628906	294.2720642089844	-713.6265869140625	22.88956260681152	45.83202362060547	-517.7691650390625	-61.53708648681641	48.52692031860352	-532.22216796875	-16.39711380004883	31.97849655151367	-642.7756958007812	-226.0018157958984	34.14924240112305	-678.605712890625	-171.2826538085938	533.5101928710938	-346.4310913085938	-239.4457397460938	806.9447631835938	-341.9928894042969	-500.4947509765625	162.9782867431641	-538.8953247070312	-254.1719512939453	425.5274047851562	-381.5921020507812	-316.3456726074219	53.21848678588867	-467.1082458496094	-335.4564208984375	65.45137023925781	-535.0274658203125	-427.7229614257812	87.46185302734375	-457.8468933105469	-507.1904296875	197.1631011962891	-605.1417236328125	
272	2.71	-359.2752380371094	1109.04736328125	-521.8522338867188	-284.4178771972656	1125.021850585938	-634.309326171875	-328.1101379394531	1156.7197265625	-583.5208740234375	-140.8577575683594	1357.397216796875	-459.1036987304688	-356.5317687988281	1310.388427734375	-596.0582275390625	-315.3094787597656	1602.092529296875	-584.1290893554688	-166.8806304931641	1492.832763671875	-480.6641540527344	-410.0567626953125	1418.261840820312	-540.462890625	-265.5296325683594	1583.2275390625	-673.0678100585938	-156.3694305419922	1568.917724609375	-685.8313598632812	-138.2845611572266	1440.2451171875	-762.4385986328125	-120.4432983398438	1222.51953125	-788.9488525390625	-208.1334533691406	1211.5361328125	-773.9586791992188	-70.35850524902344	954.4100952148438	-727.421142578125	-128.8267059326172	937.6869506835938	-793.4517822265625	-109.6264724731445	1105.611450195312	-794.9334716796875	-84.67733001708984	758.6122436523438	-722.3640747070312	-108.3949127197266	860.2554321289062	-787.4592895507812	-57.92722320556641	865.5614013671875	-738.7114868164062	-362.9993896484375	1582.055297851562	-399.8292541503906	-413.1176147460938	1509.626831054688	-355.4385375976562	-438.5259704589844	1215.653076171875	-344.9273376464844	-387.6386108398438	1212.883666992188	-427.4280090332031	-310.9042053222656	975.2561645507812	-270.0921630859375	-389.5572204589844	957.5661010742188	-284.5197143554688	-427.6325378417969	1142.902221679688	-316.9005432128906	-277.8934326171875	781.3047485351562	-264.8031005859375	-288.9287109375	867.8114624023438	-246.6342620849609	-359.3861389160156	858.5834350585938	-258.6142272949219	-320.8116455078125	1770.732177734375	-497.3480529785156	-111.8364486694336	1832.178833007812	-482.6883850097656	-196.8854827880859	1826.33349609375	-384.6444702148438	-239.1502380371094	1781.118896484375	-604.2484130859375	-146.0548248291016	1047.575927734375	-681.1195068359375	-304.6939086914062	1011.034912109375	-356.1929931640625	-215.8190612792969	1092.73291015625	-358.3520812988281	-78.92220306396484	1108.2431640625	-585.218017578125	-70.28093719482422	550.1371459960938	-640.8687744140625	-97.54293060302734	693.2272338867188	-677.6716918945312	-134.0379333496094	28.96383666992188	-691.0053100585938	-125.832878112793	294.296630859375	-713.4223022460938	22.97335433959961	45.55723571777344	-517.5577392578125	-61.47077178955078	48.36605834960938	-532.114013671875	-16.37656021118164	31.98907852172852	-642.7781372070312	-226.0969085693359	34.30075836181641	-678.5255126953125	-160.4623260498047	536.297119140625	-340.9681091308594	-232.2825622558594	808.9244384765625	-338.435791015625	-478.4064025878906	157.5430908203125	-536.06201171875	-240.8779144287109	426.6058654785156	-376.9404602050781	-292.1807861328125	54.00087356567383	-459.3441162109375	-310.7491455078125	64.73081970214844	-527.7052001953125	-404.6746520996094	85.86883544921875	-452.3954467773438	-485.0715637207031	190.2507019042969	-603.0182495117188	
